<?xml version="1.0" encoding="UTF-8"?>
<svg version="1.1" xmlns="http://www.w3.org/2000/svg" width="512" height="512">
<path d="M0 0 C2.6511649 -0.00571054 5.30230466 -0.0125784 7.95346069 -0.02079773 C14.37673769 -0.03789465 20.79991648 -0.03884468 27.2232103 -0.03358483 C32.45105537 -0.02952416 37.67887167 -0.03100905 42.90671539 -0.03633308 C43.65409557 -0.03708151 44.40147574 -0.03782993 45.1715038 -0.03860103 C46.6903959 -0.0401327 48.20928799 -0.04167105 49.72818008 -0.043216 C63.93643728 -0.05690854 78.14463926 -0.05152666 92.35289517 -0.04003078 C105.31101287 -0.03010571 118.26898763 -0.04303228 131.2270833 -0.06696498 C144.57650121 -0.09143199 157.92585277 -0.10094501 171.27529263 -0.09431225 C178.75230393 -0.09083635 186.22920548 -0.09294323 193.70619965 -0.11056328 C200.07227581 -0.12538098 206.43816495 -0.12579746 212.80423781 -0.10849237 C216.04320641 -0.10005697 219.28177855 -0.09986795 222.52074051 -0.11314392 C259.00318134 -0.25115779 289.91453552 9.83948348 316.31738281 35.65405273 C328.84435359 48.31544108 338.20985685 63.55433988 343.94238281 80.40405273 C344.17280273 81.07855469 344.40322266 81.75305664 344.640625 82.44799805 C348.62195584 94.90646503 350.18946152 107.11400589 350.06738281 120.15405273 C350.06282074 121.19638062 350.06282074 121.19638062 350.0581665 122.25976562 C349.9845813 133.67626413 349.05301946 144.46313093 345.62988281 155.40405273 C345.31639893 156.42958252 345.31639893 156.42958252 344.99658203 157.47583008 C335.25319704 188.34083017 312.98978259 213.636742 284.51489258 228.63647461 C279.70382713 231.03923207 274.77789465 232.97590372 269.69238281 234.71655273 C269.02625977 234.94697266 268.36013672 235.17739258 267.67382812 235.41479492 C251.3312368 240.66199185 235.34806569 240.84159988 218.34570312 240.80810547 C215.71571736 240.81381709 213.08575687 240.82068556 210.45578003 240.8289032 C204.08778393 240.84598848 197.71988695 240.84695262 191.3518739 240.84169029 C186.16839766 240.83762746 180.98495041 240.83911705 175.80147552 240.84443855 C174.68936767 240.84556119 174.68936767 240.84556119 173.55479299 240.8467065 C172.04798215 240.84823819 170.54117132 240.84977654 169.0343605 240.85132147 C154.94338409 240.86500977 140.85246339 240.85963511 126.76148829 240.84813625 C113.9140402 240.83821142 101.06673629 240.8511381 88.21931043 240.87507045 C74.97946711 240.89954505 61.7396907 240.90904865 48.49982524 240.90241772 C41.08595381 240.89894351 33.67219306 240.90103726 26.25833893 240.91866875 C19.94611384 240.93349605 13.63407737 240.93389072 7.32185557 240.91659784 C4.11110888 240.90817017 0.90076139 240.90795919 -2.30997849 240.92124939 C-39.17796324 241.06208732 -70.36320488 231.25760367 -97.05761719 205.15405273 C-107.71862095 194.36435429 -115.17811102 182.18637568 -121.37011719 168.40405273 C-121.85351562 167.33670898 -122.33691406 166.26936523 -122.83496094 165.16967773 C-132.95125006 140.93978159 -134.21576888 110.48007817 -126.37011719 85.40405273 C-126.16112793 84.72036621 -125.95213867 84.03667969 -125.73681641 83.33227539 C-115.99062443 52.45838336 -93.72892525 27.18732189 -65.25732422 12.17163086 C-60.42762473 9.75740078 -55.47919149 7.82973672 -50.37011719 6.09155273 C-49.35836426 5.74592285 -49.35836426 5.74592285 -48.32617188 5.39331055 C-46.02281133 4.65722958 -43.70680023 4.02713681 -41.37011719 3.40405273 C-39.96914354 3.02222792 -39.96914354 3.02222792 -38.5398674 2.63268948 C-25.79738183 -0.3789006 -13.02788485 -0.02541475 0 0 Z " fill="#4C6CB5" transform="translate(146.3701171875,135.595947265625)"/>
<path d="M0 0 C1.24523437 0.4021875 2.49046875 0.804375 3.7734375 1.21875 C26.37136639 8.78671921 44.22382552 24.37954251 55.25 45.5625 C65.75865345 67.07997343 67.27872072 90.26201769 59.69238281 112.99023438 C59.34965332 113.98506836 59.34965332 113.98506836 59 115 C58.61585938 116.12921875 58.23171875 117.2584375 57.8359375 118.421875 C49.83883319 139.42107406 32.81531759 155.85654998 12.80078125 165.4296875 C-8.78801344 174.76135956 -32.87469233 176.290285 -55 168 C-79.54567059 158.12675826 -96.64803106 140.12904833 -107 116 C-115.23992518 93.52962933 -114.23009757 68.99340112 -104.375 47.25 C-94.26267262 26.2666215 -76.62499357 10.45410952 -55 2 C-37.87497762 -3.9698402 -17.39905068 -6.32692752 0 0 Z " fill="#F1F1F1" transform="translate(400,171)"/>
<path d="M0 0 C1.13695312 0.350625 2.27390625 0.70125 3.4453125 1.0625 C25.51757854 8.72131038 43.07663396 25.79941053 53.24511719 46.59790039 C63.80813141 69.59479909 63.45972605 93.35605557 54.98022461 116.90332031 C46.83393819 138.20186923 30.18715883 154.69661122 9.79296875 164.4296875 C-11.80285467 173.75944954 -35.85423542 175.17897019 -58 167 C-82.548773 157.16515808 -99.65760365 139.1067359 -110 115 C-118.23992518 92.52962933 -117.23009757 67.99340112 -107.375 46.25 C-97.26267262 25.2666215 -79.62499357 9.45410952 -58 1 C-38.85394612 -5.67437856 -19.36492841 -6.11417499 0 0 Z " fill="#F1F1F1" transform="translate(163,172)"/>
<path d="M0 0 C71.94 0 143.88 0 218 0 C218 0.33 218 0.66 218 1 C216.47632813 1.34611328 216.47632813 1.34611328 214.921875 1.69921875 C191.30858902 7.22223842 170.75850259 18.47933975 157 39 C144.56740412 59.23207082 138.96455419 83.20458334 144.17797852 106.78833008 C150.32216063 130.4435784 163.77061033 150.38027028 184.78417969 163.078125 C195.30444388 169.16213321 206.20114239 172.33243219 218 175 C218 175.33 218 175.66 218 176 C145.4 176 72.8 176 -2 176 C-2 175.67 -2 175.34 -2 175 C-1.030625 174.85304688 -0.06125 174.70609375 0.9375 174.5546875 C24.10765212 170.78931886 45.54156447 160.52905332 59.72827148 141.20703125 C73.63629249 121.26144268 80.01779865 97.61146207 76.63378906 73.37744141 C72.21241617 50.00667099 59.24814886 29.73477417 39.9765625 15.81640625 C27.66026946 7.77280253 14.38866729 3.56298136 0 1 C0 0.67 0 0.34 0 0 Z " fill="#78A0D4" transform="translate(146,168)"/>
<path d="M0 0 C5.28 0 10.56 0 16 0 C16 8.25 16 16.5 16 25 C17.98 25.33 19.96 25.66 22 26 C23.03125 26.53625 24.0625 27.0725 25.125 27.625 C27.76650859 29.19595317 27.76650859 29.19595317 29.95019531 28.79711914 C32.47107711 27.81680958 33.7863201 26.555413 35.671875 24.62109375 C36.66767578 23.61079102 36.66767578 23.61079102 37.68359375 22.58007812 C38.36550781 21.87302734 39.04742187 21.16597656 39.75 20.4375 C40.44738281 19.72658203 41.14476562 19.01566406 41.86328125 18.28320312 C43.5824658 16.52869286 45.29425872 14.76756648 47 13 C51.52615993 16.67832017 55.39424999 20.41086363 59 25 C58.51007568 25.45850342 58.02015137 25.91700684 57.51538086 26.3894043 C55.30719602 28.47296959 53.12245383 30.57959744 50.9375 32.6875 C50.16599609 33.40873047 49.39449219 34.12996094 48.59960938 34.87304688 C47.87451172 35.57880859 47.14941406 36.28457031 46.40234375 37.01171875 C45.72679443 37.65584717 45.05124512 38.29997559 44.35522461 38.96362305 C42.72031716 40.95821286 42.72031716 40.95821286 43.24023438 43.61376953 C43.94925721 45.84062981 44.69387758 48.01804208 45.5625 50.1875 C47 53.784689 47 53.784689 47 56 C55.25 56 63.5 56 72 56 C72 61.28 72 66.56 72 72 C63.75 72 55.5 72 47 72 C44.76395039 79.44112614 44.76395039 79.44112614 43 87 C44.32135087 89.14750078 44.32135087 89.14750078 46.40234375 90.98828125 C47.12744141 91.69404297 47.85253906 92.39980469 48.59960938 93.12695312 C49.37111328 93.84818359 50.14261719 94.56941406 50.9375 95.3125 C51.70513672 96.05306641 52.47277344 96.79363281 53.26367188 97.55664062 C55.16306036 99.38524444 57.07499073 101.19844964 59 103 C55.32167983 107.52615993 51.58913637 111.39424999 47 115 C46.54149658 114.51007568 46.08299316 114.02015137 45.6105957 113.51538086 C43.52703041 111.30719602 41.42040256 109.12245383 39.3125 106.9375 C38.59126953 106.16599609 37.87003906 105.39449219 37.12695312 104.59960938 C36.06831055 103.51196289 36.06831055 103.51196289 34.98828125 102.40234375 C34.34415283 101.72679443 33.70002441 101.05124512 33.03637695 100.35522461 C31.04178714 98.72031716 31.04178714 98.72031716 28.38623047 99.24023438 C26.15937019 99.94925721 23.98195792 100.69387758 21.8125 101.5625 C18.215311 103 18.215311 103 16 103 C16 111.25 16 119.5 16 128 C10.72 128 5.44 128 0 128 C0 119.75 0 111.5 0 103 C-2.64 102.34 -5.28 101.68 -8 101 C-8.7425 100.608125 -9.485 100.21625 -10.25 99.8125 C-12.61726329 98.71341347 -13.56522826 99.12495134 -16 100 C-17.89725994 101.48617718 -17.89725994 101.48617718 -19.671875 103.37890625 C-20.33574219 104.05244141 -20.99960938 104.72597656 -21.68359375 105.41992188 C-22.36550781 106.12697266 -23.04742187 106.83402344 -23.75 107.5625 C-24.44738281 108.27341797 -25.14476563 108.98433594 -25.86328125 109.71679688 C-27.5824658 111.47130714 -29.29425872 113.23243352 -31 115 C-35.52615993 111.32167983 -39.39424999 107.58913637 -43 103 C-42.51007568 102.53625977 -42.02015137 102.07251953 -41.51538086 101.59472656 C-39.30983345 99.49290474 -37.12368842 97.37194275 -34.9375 95.25 C-34.16599609 94.52039063 -33.39449219 93.79078125 -32.59960938 93.0390625 C-31.87451172 92.33007812 -31.14941406 91.62109375 -30.40234375 90.890625 C-29.38901978 89.91657715 -29.38901978 89.91657715 -28.35522461 88.92285156 C-26.75129984 87.09945953 -26.75129984 87.09945953 -27.24023438 84.8840332 C-27.49095703 84.26230225 -27.74167969 83.64057129 -28 83 C-28.24878906 82.32839844 -28.49757813 81.65679687 -28.75390625 80.96484375 C-29.29422253 79.61013771 -29.83589599 78.2559722 -30.37890625 76.90234375 C-31 75 -31 75 -31 72 C-39.25 72 -47.5 72 -56 72 C-56 66.72 -56 61.44 -56 56 C-47.75 56 -39.5 56 -31 56 C-30.67 53.69 -30.34 51.38 -30 49 C-29.443125 47.948125 -28.88625 46.89625 -28.3125 45.8125 C-27.879375 44.884375 -27.44625 43.95625 -27 43 C-28.13767823 39.87857798 -29.91064009 37.85137154 -32.2578125 35.546875 C-32.88300781 34.928125 -33.50820312 34.309375 -34.15234375 33.671875 C-34.80332031 33.03765625 -35.45429687 32.4034375 -36.125 31.75 C-36.78371094 31.1003125 -37.44242188 30.450625 -38.12109375 29.78125 C-39.74296643 28.18288273 -41.3693281 26.58938103 -43 25 C-42.13192399 23.93183555 -41.25505217 22.87081915 -40.375 21.8125 C-39.88773438 21.22082031 -39.40046875 20.62914062 -38.8984375 20.01953125 C-36.48592888 17.45313834 -33.70590288 15.25491907 -31 13 C-25.72 18.28 -20.44 23.56 -15 29 C-10.64233761 27.5562861 -10.64233761 27.5562861 -6.375 25.875 C-4 25 -4 25 0 25 C0 16.75 0 8.5 0 0 Z " fill="#F5B43F" transform="translate(128,192)"/>
<path d="M0 0 C36.3 0 72.6 0 110 0 C110.12049101 28.74826131 110.12049101 28.74826131 110.1507616 42.94779778 C110.16738617 50.62752724 110.18849263 58.30715896 110.22631836 65.98681641 C110.25945215 72.71709977 110.2768509 79.44725548 110.28463173 86.17762375 C110.29017711 88.74606364 110.30100575 91.31449772 110.31719017 93.88289261 C110.33894963 97.47885934 110.34196746 101.07438824 110.34057617 104.67041016 C110.351362 105.73352417 110.36214783 106.79663818 110.3732605 107.89196777 C110.34712255 114.130417 109.8626289 118.78622196 105.53515625 123.64453125 C100.34383571 127.76178547 97.01040324 128.12732001 90.484375 128.09765625 C89.23398438 128.09443359 87.98359375 128.09121094 86.6953125 128.08789062 C84.74238281 128.07532227 84.74238281 128.07532227 82.75 128.0625 C81.43257813 128.05798828 80.11515625 128.05347656 78.7578125 128.04882812 C75.50516259 128.03704316 72.25260416 128.02059011 69 128 C69.19190918 127.36223633 69.38381836 126.72447266 69.58154297 126.06738281 C71.11436735 120.96685969 72.64181633 115.86523188 74.125 110.75 C74.45757812 109.61046875 74.79015625 108.4709375 75.1328125 107.296875 C80.89866062 85.37626323 76.40239458 62.18892297 65.12988281 42.8359375 C52.51739552 22.34200828 33.21180513 8.55174567 9.87109375 2.96484375 C6.5879503 2.25255733 3.30722011 1.58909858 0 1 C0 0.67 0 0.34 0 0 Z " fill="#93BEE5" transform="translate(146,168)"/>
<path d="M0 0 C21.80293069 3.2975087 40.19248804 15.58417722 53.75 32.6875 C68.0042192 52.77768575 74.4406327 76.11816423 70.30078125 100.64453125 C65.55199257 124.35131254 52.94979174 144.89791474 33.1484375 158.97265625 C13.63750882 171.53614506 -11.22196621 177.96581695 -34.28125 172.98828125 C-41.45529163 171.21716622 -48.26111165 169.03561549 -55 166 C-55 165.67 -55 165.34 -55 165 C-54.38705078 165.01571045 -53.77410156 165.0314209 -53.14257812 165.04760742 C-27.00040299 165.62686093 -2.25291546 161.69902634 17.625 143.25 C19.43271104 141.51657846 21.22630059 139.76820808 23 138 C23.73863281 137.28328125 24.47726563 136.5665625 25.23828125 135.828125 C27.26111546 133.72904205 28.54975777 131.5221604 30 129 C30.9890795 127.65854574 31.98747905 126.32385011 33 125 C32.51007568 124.54149658 32.02015137 124.08299316 31.51538086 123.6105957 C29.30719602 121.52703041 27.12245383 119.42040256 24.9375 117.3125 C24.16599609 116.59126953 23.39449219 115.87003906 22.59960938 115.12695312 C21.87451172 114.42119141 21.14941406 113.71542969 20.40234375 112.98828125 C19.72679443 112.34415283 19.05124512 111.70002441 18.35522461 111.03637695 C17 109 17 109 18 104 C19.32 100.7 20.64 97.4 22 94 C30.25 94 38.5 94 47 94 C46.14928385 62.6936456 41.84627515 35.91609136 18.53271484 13.36523438 C14.06945324 9.38967546 9.00780683 6.2354966 4 3 C2.65641264 2.01382011 1.31831915 1.01971192 0 0 Z " fill="#E1E6F5" transform="translate(153,170)"/>
<path d="M0 0 C20.72670438 3.5008637 38.896185 16.47191799 51.75 32.6875 C65.72420465 52.38302756 72.46213421 75.55041598 68.56787109 99.67724609 C67.43639971 105.24829542 65.85039609 110.62889258 64 116 C63.61585938 117.12921875 63.23171875 118.2584375 62.8359375 119.421875 C54.83883319 140.42107406 37.81531759 156.85654998 17.80078125 166.4296875 C-3.99422515 175.85049377 -27.62446955 176.99632233 -50 169 C-52.36200624 168.05199141 -54.67757456 167.04340853 -57 166 C-57 165.67 -57 165.34 -57 165 C-56.38705078 165.01571045 -55.77410156 165.0314209 -55.14257812 165.04760742 C-28.44743557 165.63911348 -3.24821711 161.35496931 16.80395508 142.26782227 C29.30315301 129.92436447 37.33852523 115.92851365 42 99 C42.22429687 98.25492187 42.44859375 97.50984375 42.6796875 96.7421875 C47.890863 76.25441533 43.29037434 52.49744707 32.99609375 34.37109375 C24.91814383 20.86916697 14.24546683 9.12273341 0 2 C0 1.34 0 0.68 0 0 Z " fill="#E0E5F5" transform="translate(395,170)"/>
<path d="M0 0 C9.11402484 0.20253389 16.28517222 6.14558591 22.75 12.125 C33.33917126 23.26549257 36.48782867 35.4575422 36.25 50.3515625 C35.91138141 55.29327751 34.89291845 59.44013572 33 64 C32.67128906 64.81855469 32.34257812 65.63710938 32.00390625 66.48046875 C26.42857792 78.92367557 16.3488644 87.73754871 3.8125 92.875 C-0.15490846 94.04571069 -3.88743979 94.76479292 -8 95 C-8.91910156 95.05285156 -9.83820313 95.10570312 -10.78515625 95.16015625 C-23.50351037 95.53760418 -34.95984498 91.99568124 -44.73828125 83.66796875 C-50.88025241 77.74437879 -56.46330831 71.30190008 -59 63 C-59 61.68 -59 60.36 -59 59 C-57.86046875 59.32226562 -56.7209375 59.64453125 -55.546875 59.9765625 C-43.03617439 63.08498196 -29.92763374 61.68451595 -18.55078125 55.71484375 C-7.8653209 49.20197403 -1.8540971 40.00719391 1.54638672 28.08422852 C2.32674587 24.49869242 2.18451315 20.90591007 2.1875 17.25 C2.20586914 16.08984375 2.20586914 16.08984375 2.22460938 14.90625 C2.23793666 9.61087482 1.46976503 5.08898881 0 0 Z " fill="#9DA1BF" transform="translate(388,209)"/>
<path d="M0 0 C7.59 0 15.18 0 23 0 C22.28323812 6.4508569 21.62449869 10.91649686 19.1875 16.625 C18.93935547 17.24117188 18.69121094 17.85734375 18.43554688 18.4921875 C16.62362251 22.88137833 14.41996517 26.9159807 12 31 C7.70401696 27.45114444 3.55582658 23.75911688 -0.5 19.9375 C-1.3765625 19.12152344 -2.253125 18.30554688 -3.15625 17.46484375 C-3.7646875 16.65144531 -4.373125 15.83804687 -5 15 C-4 10 -4 10 0 0 Z " fill="#F1F1F0" transform="translate(175,264)"/>
<path d="M0 0 C6 6 12 12 18 18 C14.28115862 22.51573596 10.54840458 26.31158788 6 30 C0 24 -6 18 -12 12 C-11.113125 11.46375 -10.22625 10.9275 -9.3125 10.375 C-5.31262827 7.72105667 -2.16365027 4.32730054 0 0 Z " fill="#F8D269" transform="translate(169,277)"/>
<path d="M0 0 C1.06816445 0.86807601 2.12918085 1.74494783 3.1875 2.625 C3.77917969 3.11226562 4.37085938 3.59953125 4.98046875 4.1015625 C7.58543045 6.55032727 9.74813905 9.22309375 12 12 C6 18 0 24 -6 30 C-6.53625 29.113125 -7.0725 28.22625 -7.625 27.3125 C-9.9436876 23.80962552 -12.70234174 21.58077603 -16 19 C-16.66 18.34 -17.32 17.68 -18 17 C-17.30777344 16.41605469 -17.30777344 16.41605469 -16.6015625 15.8203125 C-10.77863353 10.8259426 -5.37292078 5.47201153 0 0 Z " fill="#F8D269" transform="translate(175,205)"/>
<path d="M0 0 C1.65 1.65 3.3 3.3 5 5 C6.04662993 5.91432456 7.10596957 6.81473684 8.1875 7.6875 C11 10 11 10 13 12 C12.53851563 12.38929688 12.07703125 12.77859375 11.6015625 13.1796875 C5.77863353 18.1740574 0.37292078 23.52798847 -5 29 C-6.06816445 28.13192399 -7.12918085 27.25505217 -8.1875 26.375 C-9.07501953 25.64410156 -9.07501953 25.64410156 -9.98046875 24.8984375 C-12.54686166 22.48592888 -14.74508093 19.70590288 -17 17 C-11.39 11.39 -5.78 5.78 0 0 Z " fill="#F8D269" transform="translate(102,278)"/>
<path d="M0 0 C6.41069287 5.27101414 12.18590512 11.09128152 18 17 C17.24332031 17.74636719 16.48664063 18.49273437 15.70703125 19.26171875 C13.60107724 21.39198392 11.61573636 23.525522 9.6875 25.8125 C9.17574219 26.41707031 8.66398437 27.02164063 8.13671875 27.64453125 C7.76160156 28.09183594 7.38648437 28.53914063 7 29 C0.58930713 23.72898586 -5.18590512 17.90871848 -11 12 C-7.49102731 7.81576108 -3.91939465 3.80411834 0 0 Z " fill="#F8D269" transform="translate(96,205)"/>
<path d="M0 0 C8.25 0 16.5 0 25 0 C25 5.28 25 10.56 25 16 C16.75 16 8.5 16 0 16 C0 10.72 0 5.44 0 0 Z " fill="#F8D165" transform="translate(175,248)"/>
<path d="M0 0 C5.28 0 10.56 0 16 0 C16 8.25 16 16.5 16 25 C10.72 25 5.44 25 0 25 C0 16.75 0 8.5 0 0 Z " fill="#F8D165" transform="translate(128,295)"/>
<path d="M0 0 C7.92 0 15.84 0 24 0 C24 5.28 24 10.56 24 16 C16.08 16 8.16 16 0 16 C0 10.72 0 5.44 0 0 Z " fill="#F9D266" transform="translate(72,248)"/>
<path d="M0 0 C5.28 0 10.56 0 16 0 C16 7.92 16 15.84 16 24 C10.72 24 5.44 24 0 24 C0 16.08 0 8.16 0 0 Z " fill="#F9D266" transform="translate(128,192)"/>
</svg>
